# xmcd
#
# Track frame offsets: 
#        150
#        13444
#        27207
#        48547
#        61859
#        73684
#        83038
#        97547
#        109352
#        120365
#        132577
#        143136
#
# Disc length: 2112 seconds
#
# Revision: 0
# Processed by: cddbd v1.5.2PL0 Copyright (c) Steve Scherf et al.
# Submitted via: ExactAudioCopy v1.2
#
DISCID=a1083e0c
DTITLE=Jimmy Reed - Jimmy Reed is Back [Deluxe Edition]
DYEAR=2019
DGENRE=Blues
TTITLE0=Ain't No Time for Fussin'
TTITLE1=Keep the Faith
TTITLE2=Wake up at Daybreak
TTITLE3=Turn Me on Like a Tv
TTITLE4=Knocking on Your Door
TTITLE5=Just a Poor Country Boy
TTITLE6=Tribute to a Friend
TTITLE7=Crazy About Oklahoma
TTITLE8=When I Woke up This Morning
TTITLE9=I'm Leaving
TTITLE10=I Got to Keep Rolling
TTITLE11=My Baby Told Me
EXTD=
EXTT0=
EXTT1=
EXTT2=
EXTT3=
EXTT4=
EXTT5=
EXTT6=
EXTT7=
EXTT8=
EXTT9=
EXTT10=
EXTT11=
PLAYORDER=
